<svg height="21" viewBox="0 0 21 21" width="21" xmlns="http://www.w3.org/2000/svg"><path d="m10.5.437012c-5.525 0-10 4.591238-10 10.253788 0 4.5312 2.865 8.3738 6.8375 9.7285.5.0965.68333-.2208.68333-.493 0-.2435-.00833-.8887-.0125-1.7435-2.78166.6183-3.36833-1.3756-3.36833-1.3756-.455-1.1835-1.1125-1.5-1.1125-1.5-.90583-.6356.07-.6226.07-.6226 1.00417.0713 1.53167 1.0565 1.53167 1.0565.89166 1.5678 2.34083 1.1148 2.9125.8531.09-.6635.3475-1.1148.63333-1.3713-2.22083-.2565-4.555-1.1383-4.555-5.0669 0-1.11912.3875-2.03389 1.02917-2.75127-.1125-.25912-.45-1.30172.0875-2.71387 0 0 .8375-.27478 2.75 1.05129.8-.22782 1.65-.34086 2.50003-.34608.85.00522 1.7.11826 2.5.34608 1.9-1.32607 2.7375-1.05129 2.7375-1.05129.5375 1.41215.2 2.45475.1 2.71387.6375.71738 1.025 1.63215 1.025 2.75127 0 3.9391-2.3375 4.806-4.5625 5.0582.35.3078.675.9365.675 1.8973 0 1.3722-.0125 2.4748-.0125 2.8078 0 .2687.175.5896.6875.487 4.0008-1.3461 6.8633-5.1912 6.8633-9.7155 0-5.66255-4.4775-10.253788-10-10.253788z"/></svg>