<svg height="18" viewBox="0 0 21 18" width="21" xmlns="http://www.w3.org/2000/svg"><path d="m15.7979.599194c-.0928-.000947-.1834.025656-.2589.075949-.0754.050293-.1317.121659-.1606.203741l-2.1621 6.196476h-6.15115l-2.16211-6.196476c-.02831-.079674-.08233-.14928-.15469-.199331-.07236-.050052-.15953-.078113-.24964-.080359-.09011-.001591-.17855.022746-.25325.069687-.0747.046942-.13202.114202-.16413.192598l-2.60557 6.473331c-.00103 0-.00145.00056-.00198.00128-.00037.00049-.00079.00105-.0015.00155l-1.304311 3.23806c-.033233.0831-.036258.174-.008611.2588.027647.0849.084437.1589.16165.2107l9.561452 6.4734.00174.0032c.00174 0 .00174 0 .00174.0016l.01739.0093c.00163.0009.00315.0018.00462.0027.00115.0008.00227.0015.00339.0023.00319.0022.00638.0044.01025.006.00131 0 .00163.0009.00246.0013.00027.0002.00059.0003.00101.0003 0 0 .00174.0016.00348.0016.00086.0008.00173.0016.00275.0022.00104.0006.00224.001.00377.001l.00696.0049c.00379.0012.00784.0029.01202.0047.0054.0023.01104.0046.01667.0062v.0017l.02913.0093.00156.0001c.0003.0001.0006.0003.0009.0006.0003.0002.0006.0005.001.0009.0065.0016.0131.0032.0218.0065.0015 0 .0031.0003.0048.0006.0021.0005.0045.001.0073.001.0072.0027.0141.0039.021.0052.0014.0003.0028.0006.0043.0008l.0339.0049c.0056 0 .0113.0002.0171.0004.0031.0001.0062.0003.0094.0004.0089.0004.0178.0008.0265.0008l.0157-.0012c.0109-.0007.0213-.0014.0317-.0036.0069 0 .0117 0 .0187-.0017h.0035c.0034-.0016.0048-.0016.0087-.0016.0013 0 .003-.0012.0065-.0012.0017-.0008.0038-.0012.0059-.0016.0022-.0004.0043-.0008.0058-.0016.0059-.0014.0117-.003.0174-.0049.0031 0 .0048 0 .0065-.0016h.0053c.0153-.0046.0301-.0104.0443-.0174.0008 0 .0011 0 .0017-.0004.0003-.0003.0007-.0006.0013-.0012.0011 0 .0021 0 .0031-.0003.0007-.0003.0014-.0007.0022-.0013l.01-.0045c.0093-.0045.0184-.0094.0274-.0146.003-.0012.0047-.0028.0065-.0044.0008 0 .0017-.0004.0026-.0008s.0017-.0008.0026-.0008c.0041-.0029.008-.0052.012-.0075.0028-.0016.0056-.0033.0084-.0051l.0035-.0048 9.5615-6.4714c.1578-.1076.2191-.2991.1508-.4695l-1.3008-3.22712c-.002-.00352-.0032-.00738-.0035-.01134l-2.6086-6.476161c-.0309-.07626-.0857-.142083-.1574-.188874-.0716-.046791-.1572-.072375-.2448-.073411z"/></svg>