<svg height="20" viewBox="0 0 21 20" width="21" xmlns="http://www.w3.org/2000/svg"><path d="m10.7646 20.0004c-.0662 0-.1324 0-.1991-.0003-1.56777.0038-3.01634-.036-4.42509-.1217-1.29155-.0786-2.47049-.5249-3.40955-1.2906-.90611-.7389-1.52487-1.7378-1.839063-2.9689-.273448-1.0718-.287944-2.1239-.30183-3.1415-.010072-.7301-.020448-1.5953-.022584-2.4751.002136-.88352.012512-1.74869.022584-2.47883.013886-1.01745.028382-2.06955.30183-3.14148.314193-1.23108.932953-2.23007 1.839063-2.9689.93906-.765685 2.118-1.212005 3.4097-1.290588 1.40875-.0856013 2.85763-.12557935 4.42874-.12176465 1.5682-.00335694 3.0163.03616335 4.4251.12176465 1.2915.078583 2.4704.524903 3.4095 1.290588.9063.73883 1.5249 1.73782 1.8391 2.9689.2734 1.07178.2879 2.12403.3018 3.14148.0101.73014.0206 1.59531.0226 2.47513v.0037c-.002.8798-.0125 1.745-.0226 2.4751-.0139 1.0174-.0282 2.0695-.3018 3.1415-.3142 1.2311-.9328 2.23-1.8391 2.9689-.9391.7657-2.118 1.212-3.4095 1.2906-1.3491.0821-2.735.122-4.2298.122zm-.1991-1.5628c1.5422.0037 2.9583-.0352 4.3339-.1188.9766-.0594 1.8234-.3763 2.5171-.942.6412-.5229 1.0828-1.2443 1.3124-2.1443.2277-.8922.2408-1.8501.2535-2.7765.0099-.7252.0203-1.5843.0224-2.4556-.0021-.8714-.0125-1.73031-.0224-2.45556-.0127-.92637-.0258-1.88431-.2535-2.77665-.2296-.89996-.6712-1.6214-1.3124-2.14431-.6937-.56549-1.5405-.88242-2.5171-.94178-1.3756-.08377-2.7917-.12237-4.3303-.11902-1.54192-.00366-2.95814.03525-4.33378.11902-.9766.05936-1.82334.37629-2.51703.94178-.6412.52291-1.0828 1.24435-1.31246 2.14431-.22767.89234-.24079 1.85013-.25346 2.77665-.00991.72586-.02029 1.58538-.02243 2.45746.00214.8682.01252 1.7279.02243 2.4537.01267.9264.02579 1.8843.25346 2.7765.22966.9.67126 1.6214 1.31246 2.1443.69369.5655 1.54043.8825 2.51703.9418 1.37564.0838 2.79216.1228 4.33018.119zm-.0373-3.5544c-2.69232 0-4.88296-2.1904-4.88296-4.8828 0-2.69238 2.19064-4.88278 4.88296-4.88278 2.6926 0 4.883 2.1904 4.883 4.88278 0 2.6924-2.1904 4.8828-4.883 4.8828zm0-8.20308c-1.83078 0-3.3204 1.48956-3.3204 3.32028 0 1.8308 1.48962 3.3203 3.3204 3.3203 1.831 0 3.3205-1.4895 3.3205-3.3203 0-1.83072-1.4895-3.32028-3.3205-3.32028zm5.4299-3.125c-.6471 0-1.1719.5246-1.1719 1.17187 0 .64728.5248 1.17188 1.1719 1.17188.6473 0 1.172-.5246 1.172-1.17188 0-.64727-.5247-1.17187-1.172-1.17187z"/></svg>