<svg height="21" viewBox="0 0 30 27.3" width="21" xmlns="http://www.w3.org/2000/svg"><path d="m27.477 14.714c3.363-3.366 3.363-8.823 0-12.187-3.369-3.369-8.823-3.369-12.19-.003-2.313 2.318-3.038 5.626-2.162 8.56l-13.125 13.119v2.6l.501.497h3.497l.948-.948h.85l1.576-1.572v-.975l4.307-4.309.714.714 2.197-2.2 1.399 1.4 1.195-1.197.083-2.019c3.267 1.775 7.443 1.285 10.21-1.48zm-4.005-5.177c-1.662 0-3.007-1.345-3.007-3.007s1.345-3.007 3.007-3.008c1.662.001 3.007 1.346 3.007 3.008-.001 1.662-1.345 3.007-3.007 3.007z"/></svg>