<svg height="21" viewBox="0 0 21 21" width="21" xmlns="http://www.w3.org/2000/svg" xmlns:xlink="http://www.w3.org/1999/xlink"><clipPath id="a"><path d="m.854004.416016h20v20h-20z"/></clipPath><g clip-path="url(#a)"><path d="m1.20726 10.0591 4.6084 1.72 1.78374 5.7365c.11413.3674.5634.5032.8616.2594l2.5688-2.0942c.2693-.2194.6528-.2303.9342-.026l4.6332 3.3638c.319.2318.7709.057.8509-.3284l3.3941-16.3261c.0873-.42106-.3264-.77233-.7273-.61726l-18.91304 7.29606c-.46673.18-.462664.8408.0054 1.0162zm6.10467.8044 9.00657-5.54713c.1618-.0994.3284.11947.1894.2484l-7.43304 6.90933c-.26126.2432-.4298.5687-.47753.9219l-.2532 1.8764c-.03354.2506-.38547.2754-.4546.033l-.9738-3.4217c-.11153-.3903.051-.8071.3962-1.0202z"/></g></svg>