<svg width="19" height="19" viewBox="0 0 19 19" xmlns="http://www.w3.org/2000/svg">
<g clip-path="url(#clip0)">
<path d="M9.50025 3.85292e-06C10.7488 2.95398e-06 11.985 0.246105 13.1384 0.724237C14.2917 1.20237 15.3395 1.90315 16.2218 2.78652C17.1041 3.66988 17.8036 4.7185 18.2804 5.87241C18.7571 7.02632 19.0017 8.26289 19.0003 9.5114C18.9775 14.7763 14.7044 19.0342 9.48315 19C6.9636 18.9977 4.54813 17.9947 2.76814 16.2115C0.988151 14.4283 -0.0105645 12.011 -0.00829693 9.49145C-0.00602933 6.9719 0.997035 4.55644 2.78023 2.77644C4.56343 0.996452 6.9807 -0.00226371 9.50025 3.85292e-06ZM11.7176 7.6209H7.29055C7.08012 8.86608 7.08012 10.1377 7.29055 11.3829H11.7157C11.9193 10.1372 11.9199 8.86679 11.7176 7.6209ZM5.34685 7.6209C5.30735 7.61185 5.26739 7.60487 5.22715 7.6C4.25625 7.6 3.28345 7.6 2.31255 7.6C2.2862 7.59762 2.25964 7.60077 2.23458 7.60925C2.20952 7.61772 2.1865 7.63134 2.16701 7.64923C2.14751 7.66711 2.13196 7.68887 2.12136 7.71312C2.11076 7.73736 2.10535 7.76355 2.10545 7.79C1.84208 8.90779 1.83688 10.0709 2.09025 11.191C2.09127 11.2241 2.09968 11.2566 2.11488 11.2861C2.13008 11.3156 2.15168 11.3413 2.17809 11.3613C2.20451 11.3813 2.23507 11.3952 2.26754 11.4019C2.30001 11.4086 2.33357 11.408 2.36575 11.4C3.28535 11.4 4.20495 11.4 5.12455 11.4C5.19485 11.4 5.26705 11.4 5.35255 11.3867C5.18474 10.1372 5.18282 8.87094 5.34685 7.6209ZM13.648 7.6209C13.8192 8.86778 13.8192 10.1322 13.648 11.3791C13.6893 11.3881 13.7312 11.3944 13.7734 11.3981C14.7443 11.3981 15.7152 11.3981 16.6861 11.3981C16.7124 11.4005 16.739 11.3973 16.764 11.3889C16.7891 11.3804 16.8121 11.3668 16.8316 11.3489C16.8511 11.331 16.8666 11.3092 16.8772 11.285C16.8878 11.2607 16.8933 11.2346 16.8932 11.2081C17.1567 10.0833 17.1567 8.91287 16.8932 7.7881C16.8906 7.75782 16.8816 7.72843 16.8668 7.70191C16.852 7.67539 16.8316 7.65236 16.8071 7.63436C16.7827 7.61635 16.7546 7.6038 16.7249 7.59755C16.6951 7.5913 16.6644 7.59149 16.6348 7.5981C15.7076 7.5981 14.7823 7.5981 13.8551 7.5981C13.7943 7.6 13.7297 7.6133 13.648 7.619V7.6209ZM7.70095 5.6772H11.311C10.9106 4.34459 10.2993 3.08475 9.50025 1.9456C8.70603 3.08597 8.09864 4.34564 7.70095 5.6772ZM7.70095 13.3133C8.10046 14.6477 8.70767 15.9109 9.50025 17.0563C10.2921 15.9111 10.8993 14.6487 11.2996 13.3152H7.68955L7.70095 13.3133ZM16.0496 5.7C15.3523 4.3016 13.0666 2.4396 12.0007 2.3845C12.529 3.39562 12.9468 4.4607 13.2471 5.5613C13.2674 5.59809 13.2963 5.6294 13.3314 5.65256C13.3665 5.67572 13.4066 5.69004 13.4485 5.6943C14.0185 5.7057 14.5885 5.6943 15.1585 5.6943H16.0496V5.7ZM6.97895 2.3389C5.28858 2.93889 3.86328 4.11464 2.95285 5.6601C2.97277 5.67384 2.99451 5.68471 3.01745 5.6924C3.87625 5.6924 4.72745 5.6924 5.59575 5.6924C5.63307 5.68121 5.66727 5.66147 5.69563 5.63475C5.72399 5.60804 5.74574 5.57509 5.75915 5.5385C5.91875 5.0692 6.04225 4.5885 6.22085 4.1287C6.44505 3.5416 6.70725 2.9716 6.97895 2.3389ZM2.95665 13.3C3.53615 14.6034 5.93965 16.5737 6.98465 16.6098C6.94855 16.5376 6.91435 16.473 6.88775 16.4065C6.55335 15.58 6.22085 14.7364 5.89025 13.8985C5.81805 13.7085 5.82185 13.4444 5.70025 13.3513C5.57865 13.2582 5.29935 13.3 5.09415 13.3C4.39115 13.3 3.68815 13.3 2.95665 13.3ZM11.9855 16.6706C13.6955 16.0689 15.1386 14.8835 16.061 13.3228C16.0157 13.314 15.9701 13.3077 15.9242 13.3038C15.0939 13.3038 14.2636 13.3038 13.4333 13.3038C13.4083 13.302 13.3832 13.3051 13.3595 13.313C13.3357 13.321 13.3138 13.3335 13.2949 13.3499C13.276 13.3663 13.2605 13.3863 13.2494 13.4087C13.2382 13.4311 13.2316 13.4555 13.23 13.4805C12.9488 14.2823 12.66 15.0822 12.3655 15.8764C12.2686 16.1329 12.128 16.3761 11.9855 16.6706Z"/>
</g>
<defs>
<clipPath id="clip0">
<rect width="19" height="19"/>
</clipPath>
</defs>
</svg>
