<svg fill="none" height="220" viewBox="0 0 261 220" width="261" xmlns="http://www.w3.org/2000/svg"><rect height="51.9617" rx="25.9809" stroke="#dbdbdb" width="131.166" x="1.51575" y="1.85303"/><path d="m64.2817 34.8339h5.1775c3.125 0 4.5668-1.6122 4.5668-3.8139 0-2.2088-1.4631-3.5369-2.8764-3.6364v-.1136c1.2997-.348 2.3082-1.3565 2.3082-3.1747 0-2.1875-1.4275-3.8068-4.2685-3.8068h-4.9076zm1.3281-1.1932v-5.6037h3.9062c1.9532 0 3.2387 1.3211 3.2387 2.983 0 1.5057-1.0512 2.6207-3.2955 2.6207zm0-6.7826v-5.3765h3.5795c1.9887 0 2.9972 1.0725 2.9972 2.6137 0 1.598-1.1577 2.7628-2.8764 2.7628zm18.1401 3.8068c0 2.0028-1.5057 3.0824-2.9829 3.0824-1.5767 0-2.6847-1.1293-2.6847-2.8338v-6.9887h-1.2642v7.0668c0 2.5852 1.4915 3.9844 3.5867 3.9844 1.598 0 2.7343-.831 3.2457-1.9532h.0994v1.8111h1.2642v-10.9091h-1.2642zm4.4754 4.169h1.2713v-10.9091h-1.2713zm.6463-12.7841c.5185 0 .9517-.4119.9517-.9091 0-.4971-.4332-.9091-.9517-.9091s-.9446.412-.9446.9091c0 .4972.4261.9091.9446.9091zm5.0826-1.7613h-1.2642v14.5454h1.2642zm7.1228 14.7727c1.981 0 2.905-1.2571 3.352-2.2514h.149v2.0241h1.236v-14.5454h-1.271v5.7173h-.114c-.433-.9801-1.335-2.2301-3.331-2.2301-2.6915 0-4.5097 2.2727-4.5097 5.6321 0 3.3878 1.8111 5.6534 4.4887 5.6534zm.149-1.1577c-2.1732 0-3.3664-1.9744-3.3664-4.517 0-2.5142 1.179-4.4602 3.3664-4.4602 2.131 0 3.338 1.8465 3.338 4.4602 0 2.6349-1.221 4.517-3.338 4.517z" fill="#171d29"/><circle cx="28.0484" cy="27.8339" r="15.2266" stroke="#3d834e" stroke-width="2"/><path clip-rule="evenodd" d="m22.102 25.659-2.1213 2.1213 6.4167 6.4167.0537-.0537.0536.0536 9.8583-9.8582-2.1213-2.1214-7.7907 7.7907z" fill="#3d834e" fill-rule="evenodd"/><rect height="51.9617" rx="25.9809" stroke="#dbdbdb" width="245.969" x="1.51575" y="79.819"/><path d="m76.2064 105.527c0-4.552-2.6136-7.4715-6.2926-7.4715-3.6719 0-6.2855 2.9265-6.2855 7.4715 0 4.546 2.6065 7.472 6.2855 7.472 1.0582 0 2.0312-.242 2.8835-.696l1.392 1.861h1.4773l-1.9034-2.522c1.5199-1.285 2.4432-3.409 2.4432-6.115zm-6.4773 2.727 2.294 3.019c-.6321.312-1.3494.476-2.1093.476-2.8764 0-5-2.323-5-6.222 0-3.92 2.1449-6.2215 5-6.2215 2.8693 0 5 2.3085 5 6.2215.0071 2.301-.7316 4.041-1.9247 5.092l-1.7827-2.365zm16.2083.377c0 2.003-1.5057 3.082-2.9829 3.082-1.5767 0-2.6847-1.129-2.6847-2.834v-6.988h-1.2642v7.067c0 2.585 1.4915 3.984 3.5867 3.984 1.598 0 2.7343-.831 3.2457-1.953h.0994v1.811h1.2642v-10.909h-1.2642zm7.5081 4.417c1.8181 0 2.9261-1.008 3.3806-1.974h.0782v1.726h1.2642v-7.408c0-2.926-2.2017-3.65-3.8708-3.65-1.669 0-3.3878.66-4.1264 2.443l1.2003.433c.3977-.937 1.3849-1.74 2.9616-1.74 1.6549 0 2.5711.909 2.5711 2.401v.255c0 .824-1.0228.838-2.8552 1.066-2.4644.305-4.1903.994-4.1903 3.153 0 2.102 1.6051 3.295 3.5867 3.295zm.1704-1.157c-1.4276 0-2.4929-.76-2.4929-2.081s1.0796-1.875 2.9261-2.102c.8949-.107 2.4858-.306 2.8552-.668v1.577c0 1.789-1.2713 3.274-3.2884 3.274zm9.0301-13.6366h-1.265v14.5456h1.265zm3.209 14.5456h1.271v-10.909h-1.271zm.646-12.784c.519 0 .952-.4122.952-.9093 0-.4972-.433-.9091-.952-.9091-.518 0-.944.4119-.944.9091 0 .4971.426.9093.944.9093zm8.116 1.875h-2.309v-2.6139h-1.271v2.6139h-1.626v1.101h1.626v7.258c0 1.783 1.406 2.713 2.805 2.713.526 0 .881-.099 1.123-.192l-.27-1.143c-.178.05-.405.099-.739.099-.859 0-1.648-.404-1.648-1.775v-6.96h2.309zm3.601 15c1.364 0 2.365-.781 2.948-2.365l4.623-12.614-1.377-.021-3.239 9.24h-.1l-3.238-9.24h-1.371l4.013 11.015-.398 1.108c-.604 1.648-1.456 1.939-2.741 1.534l-.341 1.116c.255.12.724.227 1.221.227zm18.409-3.843c1.819 0 2.927-1.008 3.381-1.974h.078v1.726h1.264v-7.408c0-2.926-2.201-3.65-3.87-3.65s-3.388.66-4.127 2.443l1.201.433c.397-.937 1.385-1.74 2.961-1.74 1.655 0 2.571.909 2.571 2.401v.255c0 .824-1.022.838-2.855 1.066-2.464.305-4.19.994-4.19 3.153 0 2.102 1.605 3.295 3.586 3.295zm.171-1.157c-1.428 0-2.493-.76-2.493-2.081s1.08-1.875 2.926-2.102c.895-.107 2.486-.306 2.855-.668v1.577c0 1.789-1.271 3.274-3.288 3.274zm15.095-7.607c-.533-1.576-1.697-2.542-3.693-2.542-2.202 0-3.8 1.257-3.8 3.054 0 1.463.888 2.457 2.784 2.912l1.783.426c1.2.284 1.775.902 1.775 1.775 0 1.137-1.086 1.982-2.762 1.982-1.492 0-2.422-.675-2.728-1.968l-1.214.299c.383 1.818 1.825 2.805 3.963 2.805 2.4 0 4.048-1.321 4.048-3.175 0-1.456-.916-2.429-2.741-2.876l-1.648-.405c-1.357-.341-1.989-.888-1.989-1.832 0-1.108 1.059-1.882 2.529-1.882s2.194.774 2.535 1.754zm10.104 0c-.533-1.576-1.698-2.542-3.693-2.542-2.202 0-3.8 1.257-3.8 3.054 0 1.463.888 2.457 2.784 2.912l1.783.426c1.2.284 1.775.902 1.775 1.775 0 1.137-1.086 1.982-2.762 1.982-1.492 0-2.422-.675-2.728-1.968l-1.214.299c.383 1.818 1.825 2.805 3.963 2.805 2.4 0 4.048-1.321 4.048-3.175 0-1.456-.916-2.429-2.741-2.876l-1.648-.405c-1.357-.341-1.989-.888-1.989-1.832 0-1.108 1.059-1.882 2.529-1.882s2.194.774 2.535 1.754zm9.706 4.347c0 2.003-1.506 3.082-2.983 3.082-1.577 0-2.685-1.129-2.685-2.834v-6.988h-1.264v7.067c0 2.585 1.492 3.984 3.587 3.984 1.598 0 2.734-.831 3.246-1.953h.099v1.811h1.264v-10.909h-1.264zm4.461 4.169h1.264v-7.046c0-1.619 1.243-2.791 2.948-2.791.334 0 .646.057.76.071v-1.285c-.171-.007-.462-.022-.668-.022-1.371 0-2.542.739-2.983 1.84h-.092v-1.676h-1.229zm10.026.248c1.818 0 2.926-1.008 3.381-1.974h.078v1.726h1.264v-7.408c0-2.926-2.202-3.65-3.871-3.65s-3.388.66-4.126 2.443l1.2.433c.398-.937 1.385-1.74 2.962-1.74 1.655 0 2.571.909 2.571 2.401v.255c0 .824-1.023.838-2.855 1.066-2.465.305-4.191.994-4.191 3.153 0 2.102 1.605 3.295 3.587 3.295zm.17-1.157c-1.427 0-2.492-.76-2.492-2.081s1.079-1.875 2.926-2.102c.895-.107 2.485-.306 2.855-.668v1.577c0 1.789-1.272 3.274-3.289 3.274zm9.03-5.909c0-1.904 1.25-3.076 2.969-3.076 1.676 0 2.756 1.123 2.756 2.905v6.989h1.264v-7.067c0-2.585-1.499-3.984-3.701-3.984-1.598 0-2.698.738-3.21 1.853h-.113v-1.711h-1.229v10.909h1.264zm14.429 7.045c2.273 0 3.871-1.435 4.162-3.409h-1.278c-.291 1.392-1.435 2.251-2.884 2.251-2.137 0-3.551-1.86-3.551-4.517 0-2.642 1.456-4.46 3.551-4.46 1.556 0 2.607 1.002 2.877 2.237h1.278c-.298-2.024-1.988-3.387-4.176-3.387-2.855 0-4.801 2.372-4.801 5.653 0 3.253 1.889 5.632 4.822 5.632zm11.132 0c2.188 0 3.658-1.186 4.155-2.557l-1.2-.39c-.419.98-1.406 1.789-2.955 1.789-2.23 0-3.643-1.626-3.7-4.147h8.125v-.625c0-3.644-2.251-5.355-4.616-5.355-2.827 0-4.78 2.365-4.78 5.667 0 3.31 1.917 5.618 4.971 5.618zm-3.693-6.42c.135-2.032 1.506-3.715 3.502-3.715 1.953 0 3.323 1.612 3.323 3.715z" fill="#171d29"/><circle cx="28.0484" cy="105.8" r="15.2266" stroke="#3d834e" stroke-width="2"/><path clip-rule="evenodd" d="m22.102 103.625-2.1213 2.121 6.4167 6.417.0537-.054.0536.054 9.8583-9.858-2.1213-2.122-7.7907 7.791z" fill="#3d834e" fill-rule="evenodd"/><rect height="51.9617" rx="25.9809" stroke="#dbdbdb" width="151.123" x="1.51575" y="157.785"/><path d="m68.543 190.766c4.375 0 6.8679-2.735 6.875-7.309 0-4.524-2.4574-7.237-6.6193-7.237h-4.517v14.546zm-2.9332-1.194v-12.159h3.1108c3.5298 0 5.4048 2.28 5.4119 6.044 0 3.8-1.9176 6.115-5.6676 6.115zm17.0251 1.421c2.1875 0 3.6576-1.186 4.1548-2.557l-1.2003-.391c-.419.981-1.4062 1.79-2.9545 1.79-2.2301 0-3.6435-1.626-3.7003-4.148h8.125v-.625c0-3.643-2.2514-5.355-4.6165-5.355-2.8267 0-4.7798 2.365-4.7798 5.668 0 3.31 1.9176 5.618 4.9716 5.618zm-3.6932-6.421c.1349-2.031 1.5057-3.714 3.5014-3.714 1.9531 0 3.3239 1.612 3.3239 3.714zm10.7324 10.284h1.2714v-6.115h.1136c.4332 1.002 1.3707 2.252 3.3523 2.252 2.6704 0 4.4886-2.273 4.4886-5.654 0-3.366-1.8111-5.632-4.5099-5.632-2.0029 0-2.8907 1.25-3.331 2.23h-.1563v-2.081h-1.2287zm1.25-9.538c0-2.614 1.2003-4.46 3.331-4.46 2.1946 0 3.3736 1.946 3.3736 4.46 0 2.543-1.2003 4.517-3.3736 4.517-2.1094 0-3.331-1.882-3.331-4.517zm11.8579-9.098h-1.264v14.546h1.264zm7.436 14.773c2.826 0 4.801-2.308 4.801-5.632 0-3.345-1.975-5.654-4.801-5.654-2.827 0-4.802 2.309-4.802 5.654 0 3.324 1.975 5.632 4.802 5.632zm0-1.158c-2.266 0-3.53-2.031-3.53-4.474s1.264-4.503 3.53-4.503c2.265 0 3.529 2.06 3.529 4.503s-1.264 4.474-3.529 4.474zm7.916 5.021c1.364 0 2.365-.781 2.947-2.365l4.624-12.613-1.378-.022-3.239 9.241h-.099l-3.239-9.241h-1.37l4.012 11.016-.397 1.108c-.604 1.648-1.456 1.939-2.742 1.534l-.341 1.115c.256.121.725.227 1.222.227z" fill="#171d29"/><circle cx="28.0484" cy="183.766" r="15.2266" stroke="#3d834e" stroke-width="2"/><path clip-rule="evenodd" d="m22.102 181.591-2.1213 2.121 6.4167 6.417.0537-.054.0536.054 9.8583-9.859-2.1213-2.121-7.7907 7.791z" fill="#3d834e" fill-rule="evenodd"/><g stroke="#dbdbdb"><path d="m65.1732 53.838v4.7068c0 4.4183 3.5818 8 8 8h39.4918c4.418 0 8 3.5817 8 8v4.7268"/><path d="m77.4163 157.583v-4.443c-.0001-4.418 3.5817-8 8-8h27.3287c4.418 0 8-3.582 8-8v-5.044"/></g></svg>