<svg fill="none" height="34" viewBox="0 0 35 34" width="35" xmlns="http://www.w3.org/2000/svg" xmlns:xlink="http://www.w3.org/1999/xlink"><clipPath id="a"><path d="m.894165 0h34v34h-34z"/></clipPath><g clip-path="url(#a)" fill="#0072ff"><path d="m17.8942 34c9.3888 0 17-7.6112 17-17 0-9.38884-7.6112-17-17-17-9.38888 0-17.000035 7.61116-17.000035 17 0 9.3888 7.611155 17 17.000035 17z" fill-opacity=".110983"/><path clip-rule="evenodd" d="m16.4811 25.6578 7.083-8.992c.5974-.7244.3414-1.3353-.4267-1.3353h-3.5842l.9814-5.48318c.1423-.7955-.7111-1.16484-1.2374-.51139l-7.083 8.99197c-.5832.7386-.3271 1.3353.4267 1.3353h3.5842l-.9814 5.4832c-.1423.7955.6969 1.179 1.2374.5114z" fill-rule="evenodd"/></g></svg>